<svg id="weather-icon-unknown" xmlns="http://www.w3.org/2000/svg" viewBox="0 0 52.6 34.7"><title>unknown</title><path d="M49.7,50H16.8a10.209,10.209,0,0,1-3.2-19.9v-.3a9.347,9.347,0,0,1,9.3-9.3,8.627,8.627,0,0,1,3.6.8,13.419,13.419,0,0,1,24.6,7.4,19.419,19.419,0,0,1-.2,2.4A9.487,9.487,0,0,1,49.7,50ZM22.9,23.2a6.659,6.659,0,0,0-6.6,6.6,4.484,4.484,0,0,0,.1,1.1l.2,1.3-1.3.2a7.6,7.6,0,0,0-6.1,7.4,7.49,7.49,0,0,0,7.5,7.5H49.6a6.8,6.8,0,0,0,0-13.6h-.3l-2,.1.6-1.9a12.573,12.573,0,0,0,.5-3.3,10.725,10.725,0,0,0-20.2-5l-.7,1.2-1.2-.7A6.65,6.65,0,0,0,22.9,23.2Z" transform="translate(-6.6 -15.3)"/><path d="M33.9,39.5a1.324,1.324,0,0,1-1.3-1.3c0-1.9.1-3.2,1.6-4.8l.9-.9c1.2-1.2,1.9-2,1.8-3.1a2.251,2.251,0,0,0-2-2.2,3.082,3.082,0,0,0-3,.9,2.61,2.61,0,0,0-.6,1.8,1.265,1.265,0,0,1-1.2,1.4,1.332,1.332,0,0,1-1.4-1.2A4.966,4.966,0,0,1,30,26.4a6.039,6.039,0,0,1,5.7-1.7,5,5,0,0,1,3.9,4.7c.1,2.3-1.4,3.8-2.6,5l-.8.8c-.8.9-.9,1.5-.9,3.1A1.5,1.5,0,0,1,33.9,39.5Z" transform="translate(-6.6 -15.3)"/><circle cx="27.3" cy="28" r="1.4"/><path d="M33.9,45.2a1.9,1.9,0,1,1,0-3.8,1.967,1.967,0,0,1,1.9,1.9A1.9,1.9,0,0,1,33.9,45.2Zm0-2.8a.8.8,0,1,0,.8.8C34.8,42.8,34.4,42.4,33.9,42.4Z" transform="translate(-6.6 -15.3)"/></svg>